<mxfile host="Electron" agent="Mozilla/5.0 (Windows NT 10.0; Win64; x64) AppleWebKit/537.36 (KHTML, like Gecko) draw.io/28.0.4 Chrome/138.0.7204.97 Electron/37.2.1 Safari/537.36" version="28.0.4">
  <diagram name="Page-1" id="1hs5s9o86z9CkmKRlvlU">
    <mxGraphModel dx="705" dy="608" grid="0" gridSize="10" guides="1" tooltips="1" connect="1" arrows="1" fold="1" page="1" pageScale="1" pageWidth="827" pageHeight="1169" math="0" shadow="0">
      <root>
        <mxCell id="0" />
        <mxCell id="1" parent="0" />
        <mxCell id="GhNzC62iqTjmhW8HPOJ9-1" value="" style="rounded=0;whiteSpace=wrap;html=1;movable=0;resizable=0;rotatable=0;deletable=0;editable=0;locked=1;connectable=0;" parent="1" vertex="1">
          <mxGeometry x="145" y="110" width="525" height="631" as="geometry" />
        </mxCell>
        <mxCell id="m7XsVHhVL0BLHQTgYPTq-2" value="assistante sociale" style="shape=umlActor;verticalLabelPosition=bottom;verticalAlign=top;html=1;" parent="1" vertex="1">
          <mxGeometry x="57" y="170" width="27" height="60" as="geometry" />
        </mxCell>
        <mxCell id="m7XsVHhVL0BLHQTgYPTq-81" value="" style="shape=ellipse;container=1;horizontal=1;horizontalStack=0;resizeParent=1;resizeParentMax=0;resizeLast=0;html=1;dashed=0;collapsible=0;" parent="1" vertex="1">
          <mxGeometry x="385" y="562" width="116" height="60" as="geometry" />
        </mxCell>
        <mxCell id="m7XsVHhVL0BLHQTgYPTq-82" value="impression bon d&#39;urgence du mois (résumé)" style="html=1;strokeColor=none;fillColor=none;align=center;verticalAlign=middle;rotatable=0;whiteSpace=wrap;" parent="m7XsVHhVL0BLHQTgYPTq-81" vertex="1">
          <mxGeometry x="1.29" y="26" width="116" height="15" as="geometry" />
        </mxCell>
        <mxCell id="m7XsVHhVL0BLHQTgYPTq-83" value="&quot;extend&quot;" style="endArrow=classic;html=1;rounded=0;entryX=0.057;entryY=0.25;entryDx=0;entryDy=0;endFill=1;entryPerimeter=0;exitX=0.653;exitY=1.135;exitDx=0;exitDy=0;exitPerimeter=0;dashed=1;dashPattern=8 8;" parent="1" source="v8u3o5dKxp5fcHs1NCGX-15" target="m7XsVHhVL0BLHQTgYPTq-81" edge="1">
          <mxGeometry x="0.6712" y="11" width="50" height="50" relative="1" as="geometry">
            <mxPoint x="92.28999999999996" y="266" as="sourcePoint" />
            <mxPoint x="385" y="568" as="targetPoint" />
            <Array as="points">
              <mxPoint x="301" y="577" />
            </Array>
            <mxPoint as="offset" />
          </mxGeometry>
        </mxCell>
        <mxCell id="m7XsVHhVL0BLHQTgYPTq-84" value="" style="shape=ellipse;container=1;horizontal=1;horizontalStack=0;resizeParent=1;resizeParentMax=0;resizeLast=0;html=1;dashed=0;collapsible=0;" parent="1" vertex="1">
          <mxGeometry x="385" y="652" width="116" height="60" as="geometry" />
        </mxCell>
        <mxCell id="m7XsVHhVL0BLHQTgYPTq-85" value="impression bon d&#39;urgence de l&#39;année (résumé)" style="html=1;strokeColor=none;fillColor=none;align=center;verticalAlign=middle;rotatable=0;whiteSpace=wrap;" parent="m7XsVHhVL0BLHQTgYPTq-84" vertex="1">
          <mxGeometry x="2" y="22.5" width="116" height="15" as="geometry" />
        </mxCell>
        <mxCell id="m7XsVHhVL0BLHQTgYPTq-86" value="&quot;extend&quot;" style="endArrow=classic;html=1;rounded=0;entryX=0;entryY=0.5;entryDx=0;entryDy=0;endFill=1;exitX=0.412;exitY=1.05;exitDx=0;exitDy=0;exitPerimeter=0;dashed=1;dashPattern=8 8;" parent="1" source="v8u3o5dKxp5fcHs1NCGX-15" target="m7XsVHhVL0BLHQTgYPTq-84" edge="1">
          <mxGeometry x="0.799" y="11" width="50" height="50" relative="1" as="geometry">
            <mxPoint x="87.28999999999996" y="294" as="sourcePoint" />
            <mxPoint x="439.28999999999996" y="763" as="targetPoint" />
            <Array as="points">
              <mxPoint x="305" y="680" />
            </Array>
            <mxPoint as="offset" />
          </mxGeometry>
        </mxCell>
        <mxCell id="m7XsVHhVL0BLHQTgYPTq-106" value="administrateur de l&#39;asbl" style="shape=umlActor;verticalLabelPosition=bottom;verticalAlign=top;html=1;outlineConnect=0;" parent="1" vertex="1">
          <mxGeometry x="57" y="599" width="30" height="60" as="geometry" />
        </mxCell>
        <mxCell id="m7XsVHhVL0BLHQTgYPTq-109" value="" style="group" parent="1" vertex="1" connectable="0">
          <mxGeometry x="27" y="264" width="37" height="35" as="geometry" />
        </mxCell>
        <mxCell id="m7XsVHhVL0BLHQTgYPTq-107" value="" style="triangle;whiteSpace=wrap;html=1;rotation=-90;" parent="m7XsVHhVL0BLHQTgYPTq-109" vertex="1">
          <mxGeometry x="7" y="-6" width="35" height="37" as="geometry" />
        </mxCell>
        <mxCell id="m7XsVHhVL0BLHQTgYPTq-108" value="" style="endArrow=none;html=1;rounded=0;exitX=0.5;exitY=0;exitDx=0;exitDy=0;exitPerimeter=0;entryX=0;entryY=0.5;entryDx=0;entryDy=0;" parent="m7XsVHhVL0BLHQTgYPTq-109" source="m7XsVHhVL0BLHQTgYPTq-106" target="m7XsVHhVL0BLHQTgYPTq-107" edge="1">
          <mxGeometry width="50" height="50" relative="1" as="geometry">
            <mxPoint x="70" y="37" as="sourcePoint" />
            <mxPoint x="120" y="-13" as="targetPoint" />
          </mxGeometry>
        </mxCell>
        <mxCell id="m7XsVHhVL0BLHQTgYPTq-110" value="" style="shape=ellipse;container=1;horizontal=1;horizontalStack=0;resizeParent=1;resizeParentMax=0;resizeLast=0;html=1;dashed=0;collapsible=0;" parent="1" vertex="1">
          <mxGeometry x="537" y="423" width="120" height="60" as="geometry" />
        </mxCell>
        <mxCell id="m7XsVHhVL0BLHQTgYPTq-111" value="afficher détail du&amp;nbsp; bon d&#39;urgence" style="html=1;strokeColor=none;fillColor=none;align=center;verticalAlign=middle;rotatable=0;whiteSpace=wrap;" parent="m7XsVHhVL0BLHQTgYPTq-110" vertex="1">
          <mxGeometry x="2" y="29.00142857142857" width="120" height="15" as="geometry" />
        </mxCell>
        <mxCell id="m7XsVHhVL0BLHQTgYPTq-112" value="&quot;include&quot;" style="endArrow=classic;html=1;rounded=0;entryX=0;entryY=0.5;entryDx=0;entryDy=0;endFill=1;exitX=0.248;exitY=0.911;exitDx=0;exitDy=0;exitPerimeter=0;dashed=1;dashPattern=8 8;" parent="1" source="v8u3o5dKxp5fcHs1NCGX-18" target="m7XsVHhVL0BLHQTgYPTq-110" edge="1">
          <mxGeometry x="0.4495" y="15" width="50" height="50" relative="1" as="geometry">
            <mxPoint x="-336" y="183" as="sourcePoint" />
            <mxPoint x="237" y="382" as="targetPoint" />
            <Array as="points">
              <mxPoint x="426" y="453" />
            </Array>
            <mxPoint as="offset" />
          </mxGeometry>
        </mxCell>
        <mxCell id="GhNzC62iqTjmhW8HPOJ9-2" value="gestion des impression - bon d&#39;urgence" style="text;html=1;align=center;verticalAlign=middle;whiteSpace=wrap;rounded=0;fontSize=16;fontStyle=1" parent="1" vertex="1">
          <mxGeometry x="169" y="124" width="218" height="30" as="geometry" />
        </mxCell>
        <mxCell id="v8u3o5dKxp5fcHs1NCGX-1" value="" style="shape=ellipse;container=1;horizontal=1;horizontalStack=0;resizeParent=1;resizeParentMax=0;resizeLast=0;html=1;dashed=0;collapsible=0;" parent="1" vertex="1">
          <mxGeometry x="385" y="170" width="120" height="35" as="geometry" />
        </mxCell>
        <mxCell id="v8u3o5dKxp5fcHs1NCGX-2" value="login" style="html=1;strokeColor=none;fillColor=none;align=center;verticalAlign=middle;rotatable=0;whiteSpace=wrap;" parent="v8u3o5dKxp5fcHs1NCGX-1" vertex="1">
          <mxGeometry x="-5.8" y="13.125" width="120" height="8.75" as="geometry" />
        </mxCell>
        <mxCell id="v8u3o5dKxp5fcHs1NCGX-3" value="" style="shape=ellipse;container=1;horizontal=1;horizontalStack=0;resizeParent=1;resizeParentMax=0;resizeLast=0;html=1;dashed=0;collapsible=0;" parent="1" vertex="1">
          <mxGeometry x="385" y="225" width="120" height="35" as="geometry" />
        </mxCell>
        <mxCell id="v8u3o5dKxp5fcHs1NCGX-4" value="logout" style="html=1;strokeColor=none;fillColor=none;align=center;verticalAlign=middle;rotatable=0;whiteSpace=wrap;" parent="v8u3o5dKxp5fcHs1NCGX-3" vertex="1">
          <mxGeometry y="13.125" width="120" height="8.75" as="geometry" />
        </mxCell>
        <mxCell id="v8u3o5dKxp5fcHs1NCGX-7" value="" style="endArrow=classic;html=1;rounded=0;entryX=0;entryY=1;entryDx=0;entryDy=0;endFill=1;dashed=1;dashPattern=8 8;exitX=0.987;exitY=0.226;exitDx=0;exitDy=0;exitPerimeter=0;" parent="1" source="v8u3o5dKxp5fcHs1NCGX-26" target="v8u3o5dKxp5fcHs1NCGX-2" edge="1">
          <mxGeometry width="50" height="50" relative="1" as="geometry">
            <mxPoint x="71" y="246" as="sourcePoint" />
            <mxPoint x="447" y="314" as="targetPoint" />
            <Array as="points">
              <mxPoint x="302" y="192" />
            </Array>
          </mxGeometry>
        </mxCell>
        <mxCell id="v8u3o5dKxp5fcHs1NCGX-8" value="&quot;include&quot;" style="edgeLabel;html=1;align=center;verticalAlign=middle;resizable=0;points=[];" parent="v8u3o5dKxp5fcHs1NCGX-7" vertex="1" connectable="0">
          <mxGeometry x="0.0133" relative="1" as="geometry">
            <mxPoint as="offset" />
          </mxGeometry>
        </mxCell>
        <mxCell id="v8u3o5dKxp5fcHs1NCGX-9" value="" style="endArrow=classic;html=1;rounded=0;entryX=0;entryY=0.5;entryDx=0;entryDy=0;endFill=1;dashed=1;dashPattern=8 8;exitX=0.933;exitY=0.753;exitDx=0;exitDy=0;exitPerimeter=0;" parent="1" source="v8u3o5dKxp5fcHs1NCGX-26" target="v8u3o5dKxp5fcHs1NCGX-4" edge="1">
          <mxGeometry width="50" height="50" relative="1" as="geometry">
            <mxPoint x="264" y="262" as="sourcePoint" />
            <mxPoint x="401" y="304" as="targetPoint" />
            <Array as="points">
              <mxPoint x="306" y="243" />
            </Array>
          </mxGeometry>
        </mxCell>
        <mxCell id="v8u3o5dKxp5fcHs1NCGX-10" value="&quot;include&quot;" style="edgeLabel;html=1;align=center;verticalAlign=middle;resizable=0;points=[];" parent="v8u3o5dKxp5fcHs1NCGX-9" vertex="1" connectable="0">
          <mxGeometry x="-0.0945" y="2" relative="1" as="geometry">
            <mxPoint x="13" y="-2" as="offset" />
          </mxGeometry>
        </mxCell>
        <mxCell id="v8u3o5dKxp5fcHs1NCGX-13" value="" style="shape=ellipse;container=1;horizontal=1;horizontalStack=0;resizeParent=1;resizeParentMax=0;resizeLast=0;html=1;dashed=0;collapsible=0;" parent="1" vertex="1">
          <mxGeometry x="535.36" y="503" width="123.29" height="46" as="geometry" />
        </mxCell>
        <mxCell id="v8u3o5dKxp5fcHs1NCGX-14" value="imprimer détail du bon d&#39;urgence" style="html=1;strokeColor=none;fillColor=none;align=center;verticalAlign=middle;rotatable=0;whiteSpace=wrap;" parent="v8u3o5dKxp5fcHs1NCGX-13" vertex="1">
          <mxGeometry x="11" y="17.25" width="108.29" height="11.5" as="geometry" />
        </mxCell>
        <mxCell id="v8u3o5dKxp5fcHs1NCGX-15" value="gérer les impressions" style="ellipse;whiteSpace=wrap;html=1;" parent="1" vertex="1">
          <mxGeometry x="166" y="334" width="120" height="46" as="geometry" />
        </mxCell>
        <mxCell id="v8u3o5dKxp5fcHs1NCGX-16" value="" style="endArrow=classic;html=1;rounded=0;dashed=1;dashPattern=8 8;exitX=0.118;exitY=0.88;exitDx=0;exitDy=0;exitPerimeter=0;entryX=0.019;entryY=0.344;entryDx=0;entryDy=0;entryPerimeter=0;" parent="1" source="v8u3o5dKxp5fcHs1NCGX-18" target="v8u3o5dKxp5fcHs1NCGX-13" edge="1">
          <mxGeometry width="50" height="50" relative="1" as="geometry">
            <mxPoint x="250.7199999999999" y="384.65799999999984" as="sourcePoint" />
            <mxPoint x="384.9999999999999" y="522.0020000000001" as="targetPoint" />
            <Array as="points">
              <mxPoint x="414" y="518" />
            </Array>
          </mxGeometry>
        </mxCell>
        <mxCell id="v8u3o5dKxp5fcHs1NCGX-17" value="&quot;extend&quot;" style="edgeLabel;html=1;align=center;verticalAlign=middle;resizable=0;points=[];" parent="v8u3o5dKxp5fcHs1NCGX-16" vertex="1" connectable="0">
          <mxGeometry x="-0.4111" y="2" relative="1" as="geometry">
            <mxPoint x="49" y="24" as="offset" />
          </mxGeometry>
        </mxCell>
        <mxCell id="v8u3o5dKxp5fcHs1NCGX-18" value="" style="shape=ellipse;container=1;horizontal=1;horizontalStack=0;resizeParent=1;resizeParentMax=0;resizeLast=0;html=1;dashed=0;collapsible=0;" parent="1" vertex="1">
          <mxGeometry x="389" y="380" width="123.29" height="37" as="geometry" />
        </mxCell>
        <mxCell id="v8u3o5dKxp5fcHs1NCGX-19" value="choisir bon d&#39;urgence" style="html=1;strokeColor=none;fillColor=none;align=center;verticalAlign=middle;rotatable=0;whiteSpace=wrap;" parent="v8u3o5dKxp5fcHs1NCGX-18" vertex="1">
          <mxGeometry y="10.43" width="120" height="16.13" as="geometry" />
        </mxCell>
        <mxCell id="v8u3o5dKxp5fcHs1NCGX-20" value="" style="endArrow=classic;html=1;rounded=0;dashed=1;dashPattern=8 8;exitX=0.973;exitY=0.722;exitDx=0;exitDy=0;exitPerimeter=0;endSize=6;strokeWidth=1;jumpSize=6;" parent="1" source="v8u3o5dKxp5fcHs1NCGX-15" edge="1">
          <mxGeometry width="50" height="50" relative="1" as="geometry">
            <mxPoint x="280" y="401" as="sourcePoint" />
            <mxPoint x="389" y="402" as="targetPoint" />
            <Array as="points">
              <mxPoint x="310" y="402" />
            </Array>
          </mxGeometry>
        </mxCell>
        <mxCell id="v8u3o5dKxp5fcHs1NCGX-21" value="&quot;extend&quot;" style="edgeLabel;html=1;align=center;verticalAlign=middle;resizable=0;points=[];" parent="v8u3o5dKxp5fcHs1NCGX-20" vertex="1" connectable="0">
          <mxGeometry x="-0.4111" y="2" relative="1" as="geometry">
            <mxPoint x="39" y="-4" as="offset" />
          </mxGeometry>
        </mxCell>
        <mxCell id="v8u3o5dKxp5fcHs1NCGX-26" value="authentifier" style="ellipse;whiteSpace=wrap;html=1;" parent="1" vertex="1">
          <mxGeometry x="166" y="193" width="120" height="38" as="geometry" />
        </mxCell>
        <mxCell id="v8u3o5dKxp5fcHs1NCGX-27" value="" style="endArrow=classic;html=1;rounded=0;exitX=0.393;exitY=0.009;exitDx=0;exitDy=0;exitPerimeter=0;entryX=0.402;entryY=0.989;entryDx=0;entryDy=0;entryPerimeter=0;dashed=1;dashPattern=8 8;" parent="1" source="v8u3o5dKxp5fcHs1NCGX-15" target="v8u3o5dKxp5fcHs1NCGX-26" edge="1">
          <mxGeometry width="50" height="50" relative="1" as="geometry">
            <mxPoint x="244" y="340" as="sourcePoint" />
            <mxPoint x="351" y="256" as="targetPoint" />
          </mxGeometry>
        </mxCell>
        <mxCell id="v8u3o5dKxp5fcHs1NCGX-28" value="&quot;include&quot;" style="edgeLabel;html=1;align=center;verticalAlign=middle;resizable=0;points=[];" parent="v8u3o5dKxp5fcHs1NCGX-27" vertex="1" connectable="0">
          <mxGeometry x="0.0515" y="5" relative="1" as="geometry">
            <mxPoint as="offset" />
          </mxGeometry>
        </mxCell>
        <mxCell id="v8u3o5dKxp5fcHs1NCGX-33" value="&#xa;Tri possible par date ou par bénéficiaire&#xa;&#xa;" style="rounded=0;whiteSpace=wrap;html=1;" parent="1" vertex="1">
          <mxGeometry x="690" y="363" width="120" height="60" as="geometry" />
        </mxCell>
        <mxCell id="v8u3o5dKxp5fcHs1NCGX-34" value="" style="endArrow=none;dashed=1;html=1;rounded=0;entryX=0.004;entryY=0.373;entryDx=0;entryDy=0;entryPerimeter=0;exitX=0.985;exitY=0.393;exitDx=0;exitDy=0;exitPerimeter=0;" parent="1" source="v8u3o5dKxp5fcHs1NCGX-18" target="v8u3o5dKxp5fcHs1NCGX-33" edge="1">
          <mxGeometry width="50" height="50" relative="1" as="geometry">
            <mxPoint x="512" y="399" as="sourcePoint" />
            <mxPoint x="540" y="517" as="targetPoint" />
          </mxGeometry>
        </mxCell>
        <mxCell id="v8u3o5dKxp5fcHs1NCGX-36" value="" style="endArrow=none;html=1;rounded=0;entryX=0.018;entryY=0.301;entryDx=0;entryDy=0;entryPerimeter=0;" parent="1" target="v8u3o5dKxp5fcHs1NCGX-15" edge="1">
          <mxGeometry width="50" height="50" relative="1" as="geometry">
            <mxPoint x="81" y="255" as="sourcePoint" />
            <mxPoint x="459" y="420" as="targetPoint" />
          </mxGeometry>
        </mxCell>
      </root>
    </mxGraphModel>
  </diagram>
</mxfile>
